<svg width="800" height="200" xmlns="http://www.w3.org/2000/svg" style="background:#121212;">
  <!-- Fond -->
  <rect width="100%" height="100%" fill="#121212" />

  <!-- Texte -->
  <text x="50%" y="50%" text-anchor="middle" fill="url(#gradient)" font-family="Arial, sans-serif" font-size="64" font-weight="bold">
    Sentinel
  </text>

  <!-- Dégradé pour le texte -->
  <defs>
    <linearGradient id="gradient" x1="0%" y1="0%" x2="100%" y2="0%">
      <stop offset="0%" stop-color="magenta" />
      <stop offset="100%" stop-color="red" />
    </linearGradient>
  </defs>

  <!-- Flocon complexe -->
  <g>
    <!-- Centre -->
    <circle cx="400" cy="100" r="5" fill="white" />

    <!-- Branche 1 -->
    <path d="M400 100 L400 40 L405 50 L400 60 L395 50 Z" fill="white" />
    <path d="M400 50 L402 55 L400 60 L398 55 Z" fill="white" />
    <path d="M400 60 L403 65 L400 70 L397 65 Z" fill="white" />
    
    <!-- Branche 2 -->
    <path d="M400 100 L460 100 L450 105 L440 100 L450 95 Z" fill="white" />
    <path d="M450 100 L445 102 L440 100 L445 98 Z" fill="white" />
    <path d="M440 100 L435 102 L430 100 L435 98 Z" fill="white" />
    
    <!-- Branche 3 -->
    <path d="M400 100 L340 100 L350 95 L360 100 L350 105 Z" fill="white" />
    <path d="M350 100 L355 102 L360 100 L355 98 Z" fill="white" />
    <path d="M360 100 L365 102 L370 100 L365 98 Z" fill="white" />
    
    <!-- Branche 4 -->
    <path d="M400 100 L400 160 L395 150 L400 140 L405 150 Z" fill="white" />
    <path d="M400 150 L398 145 L400 140 L402 145 Z" fill="white" />
    <path d="M400 140 L397 135 L400 130 L403 135 Z" fill="white" />
    
    <!-- Branches diagonales -->
    <path d="M400 100 L440 60 L435 70 L430 60 L435 50 Z" fill="white" />
    <path d="M440 60 L437 65 L430 60 L437 55 Z" fill="white" />
    <path d="M400 100 L360 60 L365 70 L370 60 L365 50 Z" fill="white" />
    <path d="M360 60 L363 65 L370 60 L363 55 Z" fill="white" />
    <path d="M400 100 L360 140 L365 130 L370 140 L365 150 Z" fill="white" />
    <path d="M360 140 L363 135 L370 140 L363 145 Z" fill="white" />
    <path d="M400 100 L440 140 L435 130 L430 140 L435 150 Z" fill="white" />
    <path d="M440 140 L437 135 L430 140 L437 145 Z" fill="white" />
  </g>
</svg>
